/* XPM */
static char *aim[]={
"22 22 3 1",
". c None",
"a c #000000",
"# c #ffffff",
"......................",
"..........#...........",
".........#a#..........",
".........#a#..........",
".........#a#..........",
".........#a#..........",
".........#a#..........",
".........#a#..........",
".........#a#..........",
"..#######...#######...",
".#aaaaaaa...aaaaaaa#..",
"..#######...#######...",
"..........a...........",
".........#a#..........",
".........#a#..........",
".........#a#..........",
".........#a#..........",
".........#a#..........",
".........#a#..........",
"..........#...........",
"......................",
"......................"};
