/* XPM */
static char *eraser[]={
"22 22 8 1",
". c None",
"c c #141414",
"f c #2c2c2c",
"e c #424242",
"b c #939393",
"a c #c9c9c9",
"d c #d5d5d5",
"# c #ffffff",
"...............###....",
"..............#abb#...",
".............#abbbb#..",
"............#abbbbbb#.",
"...........#abbbbbbbb#",
"..........#abbbbbbbbb#",
".........#abbbbbbbbbc#",
"........#abbbbbbbbbc#.",
".......#abbbbbbbbbc#..",
"......#daabbbbbbbc#...",
".....#deeaabbbbbc#....",
"....#deeeeaabbbc#.....",
"...#deeeeeeaabc#......",
"..#deeeeeeeeac#.......",
".#deeeeeeeeef#........",
"#deeeeeeeeef#.........",
"#ddeeeeeeef#..........",
"#dddeeeeef#...........",
".#dddeeef#............",
"..#dddef#.............",
"...#ddf#..............",
"....###..............."};
