/* XPM */
static char *fill[]={
"22 22 11 1",
". c None",
"a c #000000",
"i c #222222",
"c c #2a2a2a",
"e c #333333",
"g c #3a3a3a",
"d c #404040",
"h c #555555",
"f c #aaaaaa",
"b c #d5d5d5",
"# c #ffffff",
"......................",
"............#.........",
"...........#a#........",
"..........#aba#.......",
".........#abcca#......",
"........#adceca#......",
".......#afdcecca#.....",
"......#abcedcecca#....",
".....#afcgeedeeca#....",
"...##fddcggeeeecca#...",
"..#fdccddcggeeeecca#..",
".#ddcdcdddcggeeeeca#..",
".#dccbdddddcggeeecca#.",
".#ddcddbbdddgggeeccba#",
".#ddhadddbddggggeebia#",
".#fda#adddbdddggebca#.",
".#fda##aaddbbddgbca#..",
".#fda#.##adddbdbca#...",
"..#da#...#aaddbca#....",
"..#fa#....##abca#.....",
"..#f#.......#aa#......",
"...#.........##......."};
