/* XPM */
static char *paintbrush[]={
"22 22 11 1",
". c None",
"a c #000000",
"d c #272727",
"i c #2c2c2c",
"h c #303030",
"c c #3b3b3b",
"g c #aaaaaa",
"e c #c8c8c8",
"b c #d5d5d5",
"f c #ececec",
"# c #ffffff",
".................#abcc",
"................#abccc",
"...............#abcccd",
"..............#abcccdd",
".............#abcccdda",
"............#abcccdda#",
"...........#abcccdda#.",
"..........#abcccdda#..",
"..........abcccdda#...",
".........##cccdda#....",
".........#eecdda#.....",
"......##f#eegda#......",
".....#aabeggga#.......",
"....#abbchgaa#........",
"...#abcccda##.........",
"...abcccdda#..........",
"..#abccddia#..........",
".#abccdiaa#...........",
"#abdddaa##............",
"aaaaaa##..............",
"######................",
"......................"};
